<svg xmlns="http://www.w3.org/2000/svg" viewBox="0 0 964.38 307.7"><defs><style>.cls-1{fill:#fff;}</style></defs><g id="Capa_2" data-name="Capa 2"><g id="Capa_1-2" data-name="Capa 1"><path class="cls-1" d="M885,217c5.06,5.28,10.57,9.58,14.14,15.13a33.55,33.55,0,0,1,5,24.65A44,44,0,0,1,895,276.89c-7,8.79-11.4,19.83-21.81,25.59-7.34,4.07-15.1,6.12-23.78,4.84-12.57-1.86-22.89-8.83-33.93-14.1A773.3,773.3,0,0,0,728.64,258,37.21,37.21,0,0,1,710,244.46a13.48,13.48,0,0,0-6.69-4.35c-7.65-2.24-15.52-3.76-23.19-6-14.11-4-25.9-11.86-35.9-22.55-.82-.87-2.76-1.6-3.76-1.24-21.24,7.71-41.72,2.44-62.19-3.37a20.46,20.46,0,0,0-2-.39c-2.05,9.87-7.84,17.33-16.48,21.41-6.24,3-13.83,5.26-20.52,4.64A377.82,377.82,0,0,1,492,225c-10.9-2.43-17.75-10.56-21.13-21.2-1.32-4.14-1-9-7.33-9.46-4.28-.32-8-2.56-12.79,0-6.07,3.26-13.09,4.73-19.58,7.26a7,7,0,0,0-3.85,3.6c-3.83,11.48-11.59,18.17-23.11,21.88-10.52,3.4-20,.5-29.68-2.41-8.42-2.54-16.68-5.6-25.18-8.49-2.19,3-3.8,6.34-6.4,8.49-4.37,3.62-9,7.73-14.19,9.44-12.47,4.07-25.42,6.63-38.06,10.22-14.31,4.05-26-.61-36.93-10.31-11.13,10.48-25.52,14.31-40.19,16.65-7.54,1.21-15.52.66-23.17-.24-3.86-.46-5.61.22-7.58,3.31-5.34,8.36-9.66,17.77-18.92,22.75-7.2,3.87-14.84,5.93-23.33,4.75-10.07-1.4-17.8-6.47-25.24-13-14-12.28-28.46-24.14-42.9-35.95-1.61-1.31-4.39-1.18-6.63-1.72-6.72-1.62-14.11-2-20-5.15-10.22-5.48-19.32-13-29.25-19.08C5.09,199.34.63,188.28,0,176.13A34.7,34.7,0,0,1,10.6,149.51C30.34,130,51.39,112.17,75.28,97.9c15.39-9.19,32.24-15.21,49.9-16.29,20-1.21,38.54,4.32,52.52,20.07,4.38-1.63,8.83-3,13-5,1.27-.61,2.37-2.94,2.4-4.5.22-11,1.71-21.64,9.28-30.23A54.84,54.84,0,0,1,213,53c10-6.67,20.29-12.79,30.15-19.59A60.58,60.58,0,0,1,268,23.81c1-.17,2.11-.72,2.88-.4,6.06,2.52,11.81.49,17.41-1.31,9.34-3,17.78.68,26.23,3.28a223.81,223.81,0,0,1,23.69,9.25c3.15,1.37,5.45,1,8.28-.67,9.18-5.39,18.64-10.32,27.77-15.79,8.42-5,17.45-9.1,27-9.46a41.22,41.22,0,0,1,20.29,5c6.85,3.72,12.35,9.92,18.41,15C460.22,18,482,12.61,505,14.2c8.43.59,15,.87,21.78-6.09C534.39.37,545.37-1.22,556.13.79c22.24,4.15,44.42,8.66,66.62,13,10.69,7.5,23.83,5.59,35.55,9.24,12.07,3.76,24.29,7,36.51,10.28,9.18,2.45,16.82,7,22.08,15.07,5,7.66,6.54,16.26,6.4,25.13-.09,5.77-1.23,11.52-1.92,17.5l19.24,4.22c1.44-6.21,2.65-12.35,4.3-18.37,3.19-11.63,10.82-18.76,22.23-22.72,10.37-3.59,20-1.31,29.7,1.85a884.33,884.33,0,0,1,145.61,62.52c13.44,7.24,21.51,18.41,21.91,33.32.28,10.42-3.06,21.15-12.51,27.55-8.64,5.85-18.07,10.53-27.21,15.62C911.33,202.44,898,209.77,885,217ZM393.76,192.57c-1.05-6.3-2.13-12.76-3.26-19.51,3.66-.39,6.79-.66,9.89-1.07,14.32-1.88,28.17-5.41,40.52-13.13,4.33-2.7,7.86-6.7,12.15-10.46l-21.37-20.14c-10.66,13.62-18.79,19.14-27.15,18l34.39-39c.81,4.75,1.3,8,1.92,11.24,5.32,27.93,21.07,42.78,48.66,45.16,8.51.73,17.14.11,25.86.11L503.74,191.9l38.34,5.38c5.2-21.54,10.2-42.31,15.21-63.08l1.35.09c1.19,16.1,8.06,28.45,23.06,35.39,2.86,1.33,5.8,2.5,8.7,3.75,33.53,14.42,71.73-5.09,82.41-35.71,6.73-19.28,11.76-38.84,14-59.11,1.12-10.25,1-10.38-8.73-13.21-12.4-3.62-24.85-7-37.75-10.66-1.23,11.18-2,21.63-3.61,31.95-2,13-4.1,26-7.45,38.63-1.44,5.42-5.57,10.55-9.57,14.75s-9.19,3.09-12-2.06c-1.54-2.86-3-6.24-3-9.36.26-16.46.63-32.93,1.75-49.34.73-10.71,2.79-21.33,4.35-32.76l-62.2-11.38c-.31,6.09-.7,11-.67,16,0,1,1.51,2.39,2.61,2.78,3.89,1.38,7.91,2.39,12.2,3.63-1,4.6-1.92,8.93-2.89,13.41-4.08-2.91-7.62-6-11.63-8.19-22.47-12.35-46.42-16.42-71.43-10.57-21.17,5-34.41,18.07-37.25,40.37a10.37,10.37,0,0,1-1.07,2.59q-26.7-9.56-52.52.74c-14.64,5.85-26.91,14.5-29.79,31.41-1.23,7.19-1.09,14.62-1.56,21.6L297.31,126l32.55-56.23c-10.19-4-20.28-7.8-30.23-11.94-3.19-1.33-5.07-.86-7.16,1.87-5.24,6.84-10.76,13.45-16.69,20.79-1.87-7.53-3.56-14.31-5.44-21.87-13.54,8.71-26.42,17-39.25,25.3-.88.57-2,1.7-2,2.56,0,5.35.36,10.7.61,16.51l12.16-5.74C255,135.18,268,172.67,281.07,210.42L316.61,201c-3-10.86-5.92-21.19-9.34-33.44Zm535.35-40.28A875.24,875.24,0,0,0,778.36,87.43l-5.86,31.33,69.67,24.66a911.2,911.2,0,0,0-103.62,80.26,756.67,756.67,0,0,1,116,48.91l15.33-22L810.26,223A906.82,906.82,0,0,1,929.11,152.29Zm-860,31.35,76.38,62.14,13.31-20.54-31.89-33.05c3.06-5.86,6.48-11.42,9-17.37,5.38-12.83,10.94-25.65,15.17-38.89,2.78-8.72-.47-13.23-9.09-16.62-10.21-4-20.29-2.42-30.2,1.2-21.15,7.75-38.84,21-55.51,35.67-7.05,6.22-13.83,12.73-21,19.32l29.17,19.67C65.91,191.46,67.2,188.26,69.07,183.64ZM213.45,127c-14,.2-31,11.49-43.17,31.17-8.82,14.3-7.55,28.23,1.73,41.56,9.49,13.64,22.74,19.21,39.1,15.57,23.17-5.15,37.56-20.58,44.37-42.32C263.18,148.38,247.37,127,213.45,127Zm555.44,27.11a9.06,9.06,0,0,0-.87-1.7,52.72,52.72,0,0,0-3.84-4.59c-13-13.22-29.08-19.66-47.33-20.76-19.86-1.2-36.34,4.33-46.41,23.3-11,20.69-5.09,39.12,16.35,48.25a107.68,107.68,0,0,0,52.73,8.15c4.67-.43,9.23-2.49,13.71-4.14.94-.35,2.17-2.53,1.86-3.3-3.38-8.22-7-16.33-10.73-24.72-10.23,6.33-20.24,10.62-32.31,5.88ZM357.12,69c3.44,3.29,6.09,6.34,9.27,8.65a9,9,0,0,0,6.48,1.6c9.55-2.11,19-4.8,28.5-7.12,7.81-1.9,15.69-3.55,23.55-5.31l1.38-2c-5.36-4.7-10.89-9.23-16-14.14-7.27-7-7.2-7.17-16.22-2.23C381.83,55.2,369.71,62,357.12,69Z"/><path class="cls-1" d="M514,103.84c-1.09,1.71-1.83,2.8-2.51,3.93-2.63,4.42-5.25,8.85-8,13.51l3.54,2.85a6.49,6.49,0,0,1-1.39.69c-10.36,1.61-16.41-1.27-19.6-9.29s0-17,7.87-22.08c1.63-1,3.7-2.14,5.51-2,9.59.43,19.43.38,26.64,8.5l31.09-13v33.76Z"/><path class="cls-1" d="M406.55,114.22l-21.67,27.22c-5.23-7.63-5.41-14.8-.68-21.23C388.41,114.49,398.3,111.66,406.55,114.22Z"/><path class="cls-1" d="M96.85,164.13c6.57-8.45,14.61-13.31,25.3-15.84.11,11.73-6.39,20.33-9.73,30.68Z"/><path class="cls-1" d="M212.41,141.58c-1.07,2.2-3.06,4.42-3,6.58.08,3,.89,6.88,2.91,8.68,1.44,1.29,6.44.85,8-.68,3.92-3.9,6.79-8.85,9.83-13,7.79,11.26-.67,29.12-16,30.62-6.45.63-13.52.82-17.26-6s-.35-12.74,4-17.78c3.06-3.57,7.12-6.28,10.73-9.37Z"/><path class="cls-1" d="M695.32,168.46C694,158.73,697,152,703.91,148.2c6-3.28,16-1.75,22.42,3.52a33.28,33.28,0,0,1-2.91,1.93C714.22,158.53,705,163.37,695.32,168.46Z"/></g></g></svg>