<svg xmlns="http://www.w3.org/2000/svg" viewBox="0 0 329.36 330.56"><defs><style>.cls-1{fill:#fff;}</style></defs><g id="Capa_2" data-name="Capa 2"><g id="Capa_1-2" data-name="Capa 1"><path class="cls-1" d="M42.07,179.06q20.37,0,40.74,0c.87,0,1.25.08,1.44,1.14a81.77,81.77,0,0,0,61.4,64.64,74.13,74.13,0,0,0,12.65,2,86.08,86.08,0,0,0,17.43-.48,80,80,0,0,0,39.05-16.4,81.08,81.08,0,0,0,29.34-45c.44-1.7.76-3.43,1-5.16.1-.53.3-.69.78-.65h.6q40.74,0,81.47,0c1.19,0,1.44.38,1.3,1.42-.58,4.28-1,8.58-1.72,12.84a157.69,157.69,0,0,1-4.85,20.44,165.79,165.79,0,0,1-23.13,47,164.89,164.89,0,0,1-103.4,66.81,157.41,157.41,0,0,1-16.13,2.33,145.52,145.52,0,0,1-18.44.63c-3.09-.12-6.2-.11-9.28-.36-3.75-.29-7.5-.68-11.22-1.23a168.58,168.58,0,0,1-20.46-4.28A165.6,165.6,0,0,1,14.56,234.49,160.71,160.71,0,0,1,2.9,199,151.43,151.43,0,0,1,.5,183.91c-.12-1.19-.29-2.38-.46-3.57C-.1,179.4.13,179,1.22,179c8.3.05,16.6,0,24.9,0Z"/><path class="cls-1" d="M17.43,90.3A137.78,137.78,0,0,1,26,75.42,163,163,0,0,1,51.52,44.8,165,165,0,0,1,135.19,2.61C140.42,1.66,145.7,1,151,.58A167.67,167.67,0,0,1,173.08.19a159.3,159.3,0,0,1,18.85,2.07A165.37,165.37,0,0,1,325.65,127.62a129.84,129.84,0,0,1,2.73,15.06c.28,2.46.6,4.92.94,7.37.13,1,0,1.48-1.25,1.47q-40.8-.06-81.59,0c-.82,0-1.17-.08-1.36-1.09a81.75,81.75,0,0,0-74-66.66,79.63,79.63,0,0,0-11.45-.14A81.76,81.76,0,0,0,84.88,147.4c-.25,1.12-.51,2.25-.69,3.39-.07.5-.21.74-.73.7-.24,0-.48,0-.72,0q-40.68,0-81.35,0c-1.11,0-1.48-.27-1.36-1.38.64-5.64,1.34-11.27,2.45-16.83A165.15,165.15,0,0,1,12,102a100.12,100.12,0,0,1,4.5-9.76A2.69,2.69,0,0,0,17.43,90.3Z"/><path class="cls-1" d="M204.86,201.56a32.41,32.41,0,0,1-6.61,6.31,53.33,53.33,0,0,1-21.17,10.22,55.13,55.13,0,0,1-17.56,1.14,52.26,52.26,0,0,1-27.33-10.55A53.61,53.61,0,0,1,112,178.05a54.24,54.24,0,0,1,9.58-45.65,53.59,53.59,0,0,1,29.67-19.66,54.59,54.59,0,0,1,18.71-1.41,52.49,52.49,0,0,1,28.28,11.31,53.74,53.74,0,0,1,19.19,29.7,52.59,52.59,0,0,1,1.41,16.71,53.16,53.16,0,0,1-11,29.14,1.51,1.51,0,0,1-.28.22c-1.17.55-1.65,1.79-2.6,2.57C204.76,201.1,204.84,201.36,204.86,201.56Z"/><path class="cls-1" d="M204.86,201.56l-.45-.16c-.27-.12-.75.15-.8-.3s.51-.2.71-.39c.45-.44,1.06-.66,1.36-1.3a1.55,1.55,0,0,1,1.83-1A12.91,12.91,0,0,1,204.86,201.56Z"/></g></g></svg>