<svg xmlns="http://www.w3.org/2000/svg" viewBox="0 0 287.25 288.62"><defs><style>.cls-1{fill:#fff;}</style></defs><g id="Capa_2" data-name="Capa 2"><g id="Capa_1-2" data-name="Capa 1"><path class="cls-1" d="M225.09,25.65c.5-1.72-.52-3-.91-4.42A16.33,16.33,0,0,1,234.35,1c8.27-3,17.64,1,20.58,9.33,5.78,16.44,11.37,33,16.5,49.63,3.17,10.31-4.35,20.21-15.26,20.4-16.21.29-32.43.2-48.63,0a15.89,15.89,0,0,1-15.82-13.29c-1.33-7.18,2.75-14,10.82-17.67a75.31,75.31,0,0,0-16.08-8.51C119.93,13.36,45.62,54.61,33.52,125.74,23,187.68,66,246.53,128.09,255.17,189,263.65,245.73,221,254.26,160.22c.77-5.45.79-10.95,1.14-16.43.6-9.44,7.67-15.72,16.83-15.33,8.71.36,15.16,7.43,15,16.75a130.59,130.59,0,0,1-1,16.08c-7.08,50.51-32.87,88.29-78.1,111.73-73.93,38.3-166.65,3.22-197.61-74.16C-21.82,117.88,23,27.69,107,5.5c40.38-10.66,78.47-4.23,114,17.79,1.17.72,2.29,1.5,3.44,2.24C224.53,25.6,224.67,25.58,225.09,25.65Z"/></g></g></svg>